<?xml version="1.0" encoding="UTF-8"?>
<svg xmlns="http://www.w3.org/2000/svg" xmlns:xlink="http://www.w3.org/1999/xlink" width="48pt" height="48pt" viewBox="0 0 48 48" version="1.1">
<g id="surface3743417">
<path style=" stroke:none;fill-rule:evenodd;fill:rgb(78.039216%,78.039216%,78.039216%);fill-opacity:1;" d="M 38 5 C 31.699219 5 16.300781 5 10 5 C 8.894531 5 8 5.894531 8 7 C 8 10.046875 8 10 8 10 L 40 10 C 40 10 40 10.046875 40 7 C 40 5.894531 39.105469 5 38 5 Z M 14 8 C 13.449219 8 13 7.550781 13 7 C 13 6.449219 13.449219 6 14 6 C 14.550781 6 15 6.449219 15 7 C 15 7.550781 14.550781 8 14 8 Z M 34 8 C 33.449219 8 33 7.550781 33 7 C 33 6.449219 33.449219 6 34 6 C 34.550781 6 35 6.449219 35 7 C 35 7.550781 34.550781 8 34 8 Z M 34 8 "/>
<path style=" stroke:none;fill-rule:evenodd;fill:rgb(9.803922%,46.27451%,82.352941%);fill-opacity:1;" d="M 44 11 C 44.101562 10.417969 42.589844 9 42 9 C 34.890625 9 13.109375 9 6 9 C 5 9 3.898438 10.417969 4 11 C 4.824219 15.664062 7 26 7 26 L 41 26 C 41 26 43.175781 15.664062 44 11 Z M 44 11 "/>
<path style=" stroke:none;fill-rule:evenodd;fill:rgb(11.764706%,53.333333%,89.803922%);fill-opacity:1;" d="M 41 26 L 7 26 C 7 26 4.824219 36.335938 4 41 C 4 42.144531 4.792969 43 6 43 C 13.109375 43 34.890625 43 42 43 C 42.589844 43 44 42.5 44 41 C 43.175781 36.335938 41 26 41 26 Z M 41 26 "/>
<path style=" stroke:none;fill-rule:evenodd;fill:rgb(98.039216%,98.039216%,98.039216%);fill-opacity:1;" d="M 20.535156 26 C 21.519531 26.324219 22.222656 26.851562 22.640625 27.558594 C 23.070312 28.289062 23.289062 29.105469 23.289062 30.015625 C 23.289062 31.597656 22.769531 32.839844 21.734375 33.746094 C 20.695312 34.652344 19.371094 35.105469 17.757812 35.105469 C 16.175781 35.105469 14.863281 34.679688 13.824219 33.824219 C 12.789062 32.96875 12.289062 31.8125 12.328125 30.347656 L 12.363281 30.277344 L 14.605469 30.277344 C 14.605469 31.191406 14.886719 31.917969 15.449219 32.460938 C 16.007812 33 16.777344 33.269531 17.757812 33.269531 C 18.75 33.269531 19.527344 33 20.09375 32.460938 C 20.65625 31.917969 20.941406 31.117188 20.941406 30.0625 C 20.941406 28.988281 20.691406 28.199219 20.1875 27.6875 C 19.6875 27.179688 18.898438 26.925781 17.816406 26.925781 L 15.765625 26.925781 L 15.765625 26 Z M 31.636719 26 L 33.984375 26 L 33.984375 34.855469 L 31.636719 34.855469 Z M 31.636719 26 "/>
<path style=" stroke:none;fill-rule:evenodd;fill:rgb(87.843137%,87.843137%,87.843137%);fill-opacity:1;" d="M 14.726562 22.035156 L 12.472656 22.035156 L 12.449219 21.964844 C 12.410156 20.652344 12.882812 19.535156 13.875 18.617188 C 14.863281 17.699219 16.15625 17.242188 17.757812 17.242188 C 19.363281 17.242188 20.640625 17.667969 21.597656 18.523438 C 22.550781 19.378906 23.027344 20.597656 23.027344 22.179688 C 23.027344 22.894531 22.808594 23.609375 22.378906 24.320312 C 21.945312 25.03125 21.292969 25.574219 20.425781 25.949219 L 20.535156 26 L 15.765625 26 L 15.765625 25.089844 L 17.816406 25.089844 C 18.855469 25.089844 19.59375 24.828125 20.027344 24.308594 C 20.460938 23.785156 20.675781 23.0625 20.675781 22.132812 C 20.675781 21.136719 20.429688 20.382812 19.9375 19.867188 C 19.445312 19.347656 18.71875 19.089844 17.757812 19.089844 C 16.84375 19.089844 16.109375 19.359375 15.554688 19.894531 C 15.023438 20.414062 14.746094 21.097656 14.726562 22.035156 Z M 33.984375 26 L 31.636719 26 L 31.636719 19.78125 L 28.082031 19.828125 L 28.082031 18.136719 L 33.984375 17.492188 Z M 33.984375 26 "/>
<path style=" stroke:none;fill-rule:evenodd;fill:rgb(9.803922%,46.27451%,82.352941%);fill-opacity:1;" d="M 6 9 C 4.5625 9 3.898438 10.417969 4 11 C 4.824219 15.664062 7 26 7 26 M 41 26 C 41 26 43.175781 15.664062 44 11 C 44 9.375 42.589844 9 42 9 "/>
</g>
</svg>
